<mxfile host="app.diagrams.net" modified="2024-06-05T08:55:51.253Z" agent="Mozilla/5.0 (Windows NT 10.0; Win64; x64) AppleWebKit/537.36 (KHTML, like Gecko) Chrome/125.0.0.0 Safari/537.36 Edg/125.0.0.0" etag="-c8r5WVroCq9sjSfKipT" version="24.4.13" type="device">
  <diagram name="Seite-1" id="WOq_2UZqLvsoeqNLU9Zs">
    <mxGraphModel dx="1413" dy="738" grid="1" gridSize="10" guides="1" tooltips="1" connect="1" arrows="1" fold="1" page="1" pageScale="1" pageWidth="827" pageHeight="1169" math="0" shadow="0">
      <root>
        <mxCell id="0" />
        <mxCell id="1" parent="0" />
        <mxCell id="jpyFjUwpC0E6z3XGQVsf-13" style="edgeStyle=orthogonalEdgeStyle;rounded=0;orthogonalLoop=1;jettySize=auto;html=1;exitX=0.5;exitY=1;exitDx=0;exitDy=0;entryX=0.5;entryY=0;entryDx=0;entryDy=0;" edge="1" parent="1" source="OmOaYpP0fQ5mqn7cj9Zt-4" target="jpyFjUwpC0E6z3XGQVsf-11">
          <mxGeometry relative="1" as="geometry" />
        </mxCell>
        <mxCell id="OmOaYpP0fQ5mqn7cj9Zt-4" value="&lt;div&gt;Main Chat&amp;nbsp;&lt;/div&gt;&lt;div&gt;Application&lt;/div&gt;" style="rounded=0;whiteSpace=wrap;html=1;" parent="1" vertex="1">
          <mxGeometry x="220" y="100" width="120" height="60" as="geometry" />
        </mxCell>
        <mxCell id="OmOaYpP0fQ5mqn7cj9Zt-11" value="" style="edgeStyle=orthogonalEdgeStyle;rounded=0;orthogonalLoop=1;jettySize=auto;html=1;" parent="1" source="OmOaYpP0fQ5mqn7cj9Zt-9" target="OmOaYpP0fQ5mqn7cj9Zt-4" edge="1">
          <mxGeometry relative="1" as="geometry" />
        </mxCell>
        <mxCell id="OmOaYpP0fQ5mqn7cj9Zt-9" value="Chat History" style="rounded=0;whiteSpace=wrap;html=1;" parent="1" vertex="1">
          <mxGeometry x="384" y="100" width="120" height="60" as="geometry" />
        </mxCell>
        <mxCell id="OmOaYpP0fQ5mqn7cj9Zt-13" style="edgeStyle=orthogonalEdgeStyle;rounded=0;orthogonalLoop=1;jettySize=auto;html=1;exitX=0.5;exitY=0;exitDx=0;exitDy=0;entryX=0.5;entryY=1;entryDx=0;entryDy=0;" parent="1" source="OmOaYpP0fQ5mqn7cj9Zt-4" target="OmOaYpP0fQ5mqn7cj9Zt-12" edge="1">
          <mxGeometry relative="1" as="geometry">
            <mxPoint x="150" y="90" as="targetPoint" />
          </mxGeometry>
        </mxCell>
        <mxCell id="OmOaYpP0fQ5mqn7cj9Zt-12" value="&lt;div&gt;Send / Recieve&lt;/div&gt;&lt;div&gt;&amp;nbsp;Files&lt;/div&gt;&lt;div&gt;(Not implemented)&lt;/div&gt;" style="rounded=0;whiteSpace=wrap;html=1;" parent="1" vertex="1">
          <mxGeometry x="220" y="10" width="120" height="60" as="geometry" />
        </mxCell>
        <mxCell id="OmOaYpP0fQ5mqn7cj9Zt-17" value="" style="edgeStyle=orthogonalEdgeStyle;rounded=0;orthogonalLoop=1;jettySize=auto;html=1;" parent="1" source="OmOaYpP0fQ5mqn7cj9Zt-14" target="OmOaYpP0fQ5mqn7cj9Zt-15" edge="1">
          <mxGeometry relative="1" as="geometry" />
        </mxCell>
        <mxCell id="OmOaYpP0fQ5mqn7cj9Zt-19" style="edgeStyle=orthogonalEdgeStyle;rounded=0;orthogonalLoop=1;jettySize=auto;html=1;entryX=0.5;entryY=0;entryDx=0;entryDy=0;" parent="1" source="OmOaYpP0fQ5mqn7cj9Zt-14" target="OmOaYpP0fQ5mqn7cj9Zt-18" edge="1">
          <mxGeometry relative="1" as="geometry" />
        </mxCell>
        <mxCell id="OmOaYpP0fQ5mqn7cj9Zt-21" style="edgeStyle=orthogonalEdgeStyle;rounded=0;orthogonalLoop=1;jettySize=auto;html=1;entryX=0.5;entryY=0;entryDx=0;entryDy=0;" parent="1" source="OmOaYpP0fQ5mqn7cj9Zt-14" target="OmOaYpP0fQ5mqn7cj9Zt-20" edge="1">
          <mxGeometry relative="1" as="geometry" />
        </mxCell>
        <mxCell id="jpyFjUwpC0E6z3XGQVsf-15" style="edgeStyle=orthogonalEdgeStyle;rounded=0;orthogonalLoop=1;jettySize=auto;html=1;exitX=0.75;exitY=0;exitDx=0;exitDy=0;entryX=0;entryY=0.5;entryDx=0;entryDy=0;" edge="1" parent="1" source="OmOaYpP0fQ5mqn7cj9Zt-14" target="jpyFjUwpC0E6z3XGQVsf-14">
          <mxGeometry relative="1" as="geometry" />
        </mxCell>
        <mxCell id="OmOaYpP0fQ5mqn7cj9Zt-14" value="&lt;div&gt;GUI&lt;/div&gt;" style="rounded=0;whiteSpace=wrap;html=1;" parent="1" vertex="1">
          <mxGeometry x="980" y="230" width="120" height="60" as="geometry" />
        </mxCell>
        <mxCell id="OmOaYpP0fQ5mqn7cj9Zt-35" value="" style="edgeStyle=orthogonalEdgeStyle;rounded=0;orthogonalLoop=1;jettySize=auto;html=1;" parent="1" source="OmOaYpP0fQ5mqn7cj9Zt-15" target="OmOaYpP0fQ5mqn7cj9Zt-34" edge="1">
          <mxGeometry relative="1" as="geometry" />
        </mxCell>
        <mxCell id="OmOaYpP0fQ5mqn7cj9Zt-15" value="Login" style="rounded=0;whiteSpace=wrap;html=1;" parent="1" vertex="1">
          <mxGeometry x="980" y="360" width="120" height="60" as="geometry" />
        </mxCell>
        <mxCell id="jpyFjUwpC0E6z3XGQVsf-3" style="rounded=0;orthogonalLoop=1;jettySize=auto;html=1;entryX=0.75;entryY=0;entryDx=0;entryDy=0;exitX=0;exitY=1;exitDx=0;exitDy=0;" edge="1" parent="1" source="OmOaYpP0fQ5mqn7cj9Zt-18" target="jpyFjUwpC0E6z3XGQVsf-2">
          <mxGeometry relative="1" as="geometry">
            <mxPoint x="1230" y="430" as="sourcePoint" />
          </mxGeometry>
        </mxCell>
        <mxCell id="jpyFjUwpC0E6z3XGQVsf-4" style="rounded=0;orthogonalLoop=1;jettySize=auto;html=1;exitX=1;exitY=1;exitDx=0;exitDy=0;entryX=0.25;entryY=0;entryDx=0;entryDy=0;" edge="1" parent="1" source="OmOaYpP0fQ5mqn7cj9Zt-18" target="jpyFjUwpC0E6z3XGQVsf-1">
          <mxGeometry relative="1" as="geometry" />
        </mxCell>
        <mxCell id="OmOaYpP0fQ5mqn7cj9Zt-18" value="Chat" style="rounded=0;whiteSpace=wrap;html=1;" parent="1" vertex="1">
          <mxGeometry x="1240" y="360" width="120" height="60" as="geometry" />
        </mxCell>
        <mxCell id="OmOaYpP0fQ5mqn7cj9Zt-20" value="Admin" style="rounded=0;whiteSpace=wrap;html=1;" parent="1" vertex="1">
          <mxGeometry x="840" y="360" width="120" height="60" as="geometry" />
        </mxCell>
        <mxCell id="OmOaYpP0fQ5mqn7cj9Zt-25" value="" style="edgeStyle=orthogonalEdgeStyle;rounded=0;orthogonalLoop=1;jettySize=auto;html=1;" parent="1" source="OmOaYpP0fQ5mqn7cj9Zt-22" target="OmOaYpP0fQ5mqn7cj9Zt-23" edge="1">
          <mxGeometry relative="1" as="geometry" />
        </mxCell>
        <mxCell id="OmOaYpP0fQ5mqn7cj9Zt-27" value="" style="edgeStyle=orthogonalEdgeStyle;rounded=0;orthogonalLoop=1;jettySize=auto;html=1;" parent="1" source="OmOaYpP0fQ5mqn7cj9Zt-22" target="OmOaYpP0fQ5mqn7cj9Zt-26" edge="1">
          <mxGeometry relative="1" as="geometry" />
        </mxCell>
        <mxCell id="OmOaYpP0fQ5mqn7cj9Zt-22" value="Standard User" style="rounded=0;whiteSpace=wrap;html=1;" parent="1" vertex="1">
          <mxGeometry x="560" y="460" width="120" height="60" as="geometry" />
        </mxCell>
        <mxCell id="OmOaYpP0fQ5mqn7cj9Zt-23" value="Group admin&lt;div&gt;(Not implemented)&lt;br&gt;&lt;/div&gt;" style="rounded=0;whiteSpace=wrap;html=1;" parent="1" vertex="1">
          <mxGeometry x="480" y="570" width="120" height="60" as="geometry" />
        </mxCell>
        <mxCell id="OmOaYpP0fQ5mqn7cj9Zt-26" value="System admin&lt;div&gt;(Not implemented)&lt;br&gt;&lt;/div&gt;" style="rounded=0;whiteSpace=wrap;html=1;" parent="1" vertex="1">
          <mxGeometry x="640" y="570" width="120" height="60" as="geometry" />
        </mxCell>
        <mxCell id="OmOaYpP0fQ5mqn7cj9Zt-30" style="edgeStyle=orthogonalEdgeStyle;rounded=0;orthogonalLoop=1;jettySize=auto;html=1;entryX=1;entryY=0.5;entryDx=0;entryDy=0;" parent="1" source="OmOaYpP0fQ5mqn7cj9Zt-28" target="OmOaYpP0fQ5mqn7cj9Zt-9" edge="1">
          <mxGeometry relative="1" as="geometry" />
        </mxCell>
        <mxCell id="OmOaYpP0fQ5mqn7cj9Zt-31" style="edgeStyle=orthogonalEdgeStyle;rounded=0;orthogonalLoop=1;jettySize=auto;html=1;entryX=0.25;entryY=0;entryDx=0;entryDy=0;" parent="1" source="OmOaYpP0fQ5mqn7cj9Zt-28" target="OmOaYpP0fQ5mqn7cj9Zt-14" edge="1">
          <mxGeometry relative="1" as="geometry" />
        </mxCell>
        <mxCell id="OmOaYpP0fQ5mqn7cj9Zt-33" style="edgeStyle=orthogonalEdgeStyle;rounded=0;orthogonalLoop=1;jettySize=auto;html=1;entryX=0.5;entryY=0;entryDx=0;entryDy=0;" parent="1" source="OmOaYpP0fQ5mqn7cj9Zt-28" target="OmOaYpP0fQ5mqn7cj9Zt-22" edge="1">
          <mxGeometry relative="1" as="geometry" />
        </mxCell>
        <mxCell id="jpyFjUwpC0E6z3XGQVsf-8" style="rounded=0;orthogonalLoop=1;jettySize=auto;html=1;exitX=0.5;exitY=0;exitDx=0;exitDy=0;entryX=0.5;entryY=1;entryDx=0;entryDy=0;" edge="1" parent="1" source="OmOaYpP0fQ5mqn7cj9Zt-28" target="jpyFjUwpC0E6z3XGQVsf-7">
          <mxGeometry relative="1" as="geometry" />
        </mxCell>
        <mxCell id="OmOaYpP0fQ5mqn7cj9Zt-28" value="Database" style="rounded=0;whiteSpace=wrap;html=1;" parent="1" vertex="1">
          <mxGeometry x="560" y="100" width="120" height="60" as="geometry" />
        </mxCell>
        <mxCell id="OmOaYpP0fQ5mqn7cj9Zt-34" value="Register" style="rounded=0;whiteSpace=wrap;html=1;" parent="1" vertex="1">
          <mxGeometry x="980" y="490" width="120" height="60" as="geometry" />
        </mxCell>
        <mxCell id="OmOaYpP0fQ5mqn7cj9Zt-38" value="" style="edgeStyle=orthogonalEdgeStyle;rounded=0;orthogonalLoop=1;jettySize=auto;html=1;" parent="1" source="OmOaYpP0fQ5mqn7cj9Zt-36" target="OmOaYpP0fQ5mqn7cj9Zt-34" edge="1">
          <mxGeometry relative="1" as="geometry" />
        </mxCell>
        <mxCell id="OmOaYpP0fQ5mqn7cj9Zt-36" value="&lt;div&gt;E Mail&lt;/div&gt;&lt;div&gt;&amp;nbsp;Interface&lt;/div&gt;&lt;div&gt;(Not implemented)&lt;br&gt;&lt;/div&gt;" style="rounded=0;whiteSpace=wrap;html=1;" parent="1" vertex="1">
          <mxGeometry x="980" y="600" width="120" height="60" as="geometry" />
        </mxCell>
        <mxCell id="OmOaYpP0fQ5mqn7cj9Zt-40" style="edgeStyle=orthogonalEdgeStyle;rounded=0;orthogonalLoop=1;jettySize=auto;html=1;entryX=1;entryY=0.75;entryDx=0;entryDy=0;" parent="1" source="OmOaYpP0fQ5mqn7cj9Zt-39" target="OmOaYpP0fQ5mqn7cj9Zt-4" edge="1">
          <mxGeometry relative="1" as="geometry" />
        </mxCell>
        <mxCell id="OmOaYpP0fQ5mqn7cj9Zt-41" style="edgeStyle=orthogonalEdgeStyle;rounded=0;orthogonalLoop=1;jettySize=auto;html=1;entryX=0.25;entryY=1;entryDx=0;entryDy=0;" parent="1" source="OmOaYpP0fQ5mqn7cj9Zt-39" target="OmOaYpP0fQ5mqn7cj9Zt-28" edge="1">
          <mxGeometry relative="1" as="geometry" />
        </mxCell>
        <mxCell id="OmOaYpP0fQ5mqn7cj9Zt-39" value="Cryptography" style="rounded=0;whiteSpace=wrap;html=1;" parent="1" vertex="1">
          <mxGeometry x="414" y="230" width="120" height="60" as="geometry" />
        </mxCell>
        <mxCell id="OmOaYpP0fQ5mqn7cj9Zt-44" value="" style="endArrow=none;dashed=1;html=1;dashPattern=1 3;strokeWidth=2;rounded=0;" parent="1" source="OmOaYpP0fQ5mqn7cj9Zt-42" edge="1">
          <mxGeometry width="50" height="50" relative="1" as="geometry">
            <mxPoint x="360" y="570" as="sourcePoint" />
            <mxPoint x="880" y="50" as="targetPoint" />
          </mxGeometry>
        </mxCell>
        <mxCell id="OmOaYpP0fQ5mqn7cj9Zt-46" value="&lt;div&gt;TODO Lukas&lt;/div&gt;" style="text;html=1;align=center;verticalAlign=middle;whiteSpace=wrap;rounded=0;" parent="1" vertex="1">
          <mxGeometry x="384" y="345" width="60" height="30" as="geometry" />
        </mxCell>
        <mxCell id="OmOaYpP0fQ5mqn7cj9Zt-47" value="&lt;div&gt;TODO Adrian&lt;br&gt;&lt;/div&gt;" style="text;html=1;align=center;verticalAlign=middle;whiteSpace=wrap;rounded=0;" parent="1" vertex="1">
          <mxGeometry x="384" y="570" width="60" height="30" as="geometry" />
        </mxCell>
        <mxCell id="OmOaYpP0fQ5mqn7cj9Zt-49" value="" style="endArrow=none;dashed=1;html=1;dashPattern=1 3;strokeWidth=2;rounded=0;" parent="1" target="OmOaYpP0fQ5mqn7cj9Zt-42" edge="1" source="jpyFjUwpC0E6z3XGQVsf-9">
          <mxGeometry width="50" height="50" relative="1" as="geometry">
            <mxPoint x="360" y="570" as="sourcePoint" />
            <mxPoint x="880" y="50" as="targetPoint" />
          </mxGeometry>
        </mxCell>
        <mxCell id="OmOaYpP0fQ5mqn7cj9Zt-42" value="Installation / Release" style="rounded=0;whiteSpace=wrap;html=1;" parent="1" vertex="1">
          <mxGeometry x="480" y="370" width="120" height="60" as="geometry" />
        </mxCell>
        <mxCell id="jpyFjUwpC0E6z3XGQVsf-1" value="User chat" style="rounded=0;whiteSpace=wrap;html=1;" vertex="1" parent="1">
          <mxGeometry x="1330" y="490" width="120" height="60" as="geometry" />
        </mxCell>
        <mxCell id="jpyFjUwpC0E6z3XGQVsf-2" value="Group chat" style="rounded=0;whiteSpace=wrap;html=1;" vertex="1" parent="1">
          <mxGeometry x="1150" y="490" width="120" height="60" as="geometry" />
        </mxCell>
        <mxCell id="jpyFjUwpC0E6z3XGQVsf-7" value="Set up and server interaction" style="rounded=0;whiteSpace=wrap;html=1;" vertex="1" parent="1">
          <mxGeometry x="560" y="10" width="120" height="60" as="geometry" />
        </mxCell>
        <mxCell id="jpyFjUwpC0E6z3XGQVsf-10" value="" style="endArrow=none;dashed=1;html=1;dashPattern=1 3;strokeWidth=2;rounded=0;" edge="1" parent="1" target="jpyFjUwpC0E6z3XGQVsf-9">
          <mxGeometry width="50" height="50" relative="1" as="geometry">
            <mxPoint x="360" y="570" as="sourcePoint" />
            <mxPoint x="508" y="430" as="targetPoint" />
          </mxGeometry>
        </mxCell>
        <mxCell id="jpyFjUwpC0E6z3XGQVsf-9" value="Test and coverage" style="rounded=0;whiteSpace=wrap;html=1;" vertex="1" parent="1">
          <mxGeometry x="384" y="460" width="120" height="60" as="geometry" />
        </mxCell>
        <mxCell id="jpyFjUwpC0E6z3XGQVsf-11" value="Logic of loading and sending data" style="rounded=0;whiteSpace=wrap;html=1;" vertex="1" parent="1">
          <mxGeometry x="220" y="230" width="120" height="60" as="geometry" />
        </mxCell>
        <mxCell id="jpyFjUwpC0E6z3XGQVsf-14" value="Logic of displaying data" style="rounded=0;whiteSpace=wrap;html=1;" vertex="1" parent="1">
          <mxGeometry x="1121" y="100" width="120" height="60" as="geometry" />
        </mxCell>
        <mxCell id="jpyFjUwpC0E6z3XGQVsf-16" value="Usability / Features" style="rounded=0;whiteSpace=wrap;html=1;" vertex="1" parent="1">
          <mxGeometry x="650" y="200" width="120" height="60" as="geometry" />
        </mxCell>
      </root>
    </mxGraphModel>
  </diagram>
</mxfile>
